<svg width="3034" height="1979" xmlns="http://www.w3.org/2000/svg" xmlns:xlink="http://www.w3.org/1999/xlink" xml:space="preserve" overflow="hidden"><g transform="translate(-651 -248)"><path d="M3685 1238 3355 1238" stroke="#C7C7C7" stroke-width="128.333" stroke-miterlimit="8" fill="none" fill-rule="evenodd"/><path d="M1141 413 1967.5 413C2423.96 413 2794 782.141 2794 1237.5 2794 1692.86 2423.96 2062 1967.5 2062L1141 2062 1141 2056.66 1254.47 2045.25C1631.09 1968.37 1914.4 1635.94 1914.4 1237.5 1914.4 839.061 1631.09 506.632 1254.47 429.751L1141 418.339Z" stroke="#C7C7C7" stroke-width="128.333" stroke-miterlimit="8" fill="none" fill-rule="evenodd"/><path d="M0 0 1132.08 0.000360892" stroke="#C7C7C7" stroke-width="128.333" stroke-miterlimit="8" fill="none" fill-rule="evenodd" transform="matrix(-1 0 0 1 1847.08 908)"/><path d="M0 0 1132.08 0.000360892" stroke="#C7C7C7" stroke-width="128.333" stroke-miterlimit="8" fill="none" fill-rule="evenodd" transform="matrix(-1 0 0 1 1847.08 1568)"/><path d="M2794 1237.5C2794 1082.58 2919.58 957 3074.5 957 3229.42 957 3355 1082.58 3355 1237.5 3355 1392.42 3229.42 1518 3074.5 1518 2919.58 1518 2794 1392.42 2794 1237.5Z" stroke="#C7C7C7" stroke-width="128.333" stroke-miterlimit="8" fill="none" fill-rule="evenodd"/></g></svg>