<svg width="137" height="137" xmlns="http://www.w3.org/2000/svg" xmlns:xlink="http://www.w3.org/1999/xlink" xml:space="preserve" overflow="hidden"><g transform="translate(-6 -168)"><path d="M40.25 207.958C40.25 198.444 43.5798 190.358 50.2396 183.698 56.8994 177.038 64.9861 173.708 74.5 173.708 84.0139 173.708 92.1006 177.038 98.7604 183.698 105.42 190.358 108.75 198.444 108.75 207.958L108.75 265.042C108.75 274.556 105.42 282.642 98.7604 289.302 92.1006 295.962 84.0139 299.292 74.5 299.292 64.9861 299.292 56.8994 295.962 50.2396 289.302 43.5798 282.642 40.25 274.556 40.25 265.042L40.25 207.958ZM48.8125 207.958 48.8125 265.042C48.8125 272.177 51.3099 278.242 56.3047 283.237 61.2995 288.232 67.3646 290.729 74.5 290.729 81.6354 290.729 87.7005 288.232 92.6953 283.237 97.6901 278.242 100.188 272.177 100.188 265.042L100.188 207.958C100.188 200.823 97.6901 194.758 92.6953 189.763 87.7005 184.768 81.6354 182.271 74.5 182.271 67.3646 182.271 61.2995 184.768 56.3047 189.763 51.3099 194.758 48.8125 200.823 48.8125 207.958ZM60.0865 265.176C60.0865 269.177 61.487 272.581 64.2879 275.388 67.0889 278.195 70.4902 279.598 74.4916 279.598 78.493 279.598 81.897 278.197 84.7036 275.396 87.5103 272.596 88.9135 269.194 88.9135 265.193 88.9135 261.191 87.513 257.787 84.7121 254.981 81.9111 252.174 78.5098 250.771 74.5084 250.771 70.507 250.771 67.103 252.171 64.2964 254.972 61.4897 257.773 60.0865 261.175 60.0865 265.176Z" fill="#5A5E72"/></g></svg>