<svg width="151" height="152" xmlns="http://www.w3.org/2000/svg" xmlns:xlink="http://www.w3.org/1999/xlink" xml:space="preserve" overflow="hidden"><g transform="translate(-716 -146)"><path d="M75.5-12.5833C71.9347-12.5833 68.92-13.8154 66.4557-16.2797 63.9914-18.744 62.7594-21.7586 62.7594-25.324L88.2406-25.324C88.2406-21.7586 87.0086-18.744 84.5443-16.2797 82.08-13.8154 79.0653-12.5833 75.5-12.5833ZM50.0187-35.076 50.0187-44.5135 100.981-44.5135 100.981-35.076 50.0187-35.076ZM50.8052-54.1083C43.8844-58.6174 38.4054-64.2536 34.3682-71.0172 30.331-77.7807 28.3125-85.4094 28.3125-93.9031 28.3125-106.696 32.9789-117.759 42.3115-127.092 51.644-136.424 62.707-141.091 75.5-141.091 88.293-141.091 99.356-136.424 108.689-127.092 118.021-117.759 122.688-106.696 122.688-93.9031 122.688-85.4094 120.695-77.7807 116.71-71.0172 112.726-64.2536 107.221-58.6174 100.195-54.1083L50.8052-54.1083ZM54.2656-63.5458 96.8917-63.5458C101.925-66.9013 105.91-71.2531 108.846-76.601 111.782-81.949 113.25-87.7164 113.25-93.9031 113.25-104.284 109.554-113.171 102.161-120.564 94.7682-127.957 85.8812-131.653 75.5-131.653 65.1188-131.653 56.2318-127.957 48.8391-120.564 41.4464-113.171 37.75-104.284 37.75-93.9031 37.75-87.7164 39.218-81.949 42.1542-76.601 45.0903-71.2531 49.1274-66.9013 54.2656-63.5458Z" fill="#C7C7C7" transform="matrix(1 0 0 1.00662 716 298)"/></g></svg>