<svg width="3034" height="1979" xmlns="http://www.w3.org/2000/svg" xmlns:xlink="http://www.w3.org/1999/xlink" xml:space="preserve" overflow="hidden"><g transform="translate(-651 -248)"><path d="M1141 413 1966 413C2421.63 413 2791 782.365 2791 1238 2791 1693.63 2421.63 2063 1966 2063L1141 2063Z" stroke="#C7C7C7" stroke-width="128.333" stroke-miterlimit="8" fill="none" fill-rule="evenodd"/><path d="M3685 1238 3355 1238" stroke="#C7C7C7" stroke-width="128.333" stroke-miterlimit="8" fill="none" fill-rule="evenodd"/><path d="M0 0 398.75 0.000360892" stroke="#C7C7C7" stroke-width="128.333" stroke-miterlimit="8" fill="none" fill-rule="evenodd" transform="matrix(-1 0 0 1 1113.75 908)"/><path d="M0 0 382.708 0.000360892" stroke="#C7C7C7" stroke-width="128.333" stroke-miterlimit="8" fill="none" fill-rule="evenodd" transform="matrix(-1 0 0 1 1097.71 1568)"/><path d="M2794 1237.5C2794 1082.58 2919.58 957 3074.5 957 3229.42 957 3355 1082.58 3355 1237.5 3355 1392.42 3229.42 1518 3074.5 1518 2919.58 1518 2794 1392.42 2794 1237.5Z" stroke="#C7C7C7" stroke-width="128.333" stroke-miterlimit="8" fill="none" fill-rule="evenodd"/></g></svg>