<svg width="3034" height="1979" xmlns="http://www.w3.org/2000/svg" xmlns:xlink="http://www.w3.org/1999/xlink" xml:space="preserve" overflow="hidden"><g transform="translate(-651 -248)"><path d="M0 0 660 0.000721785" stroke="#C7C7C7" stroke-width="128.333" stroke-miterlimit="8" fill="none" fill-rule="evenodd" transform="matrix(-1 0 0 1 3685 1238)"/><path d="M1141 413 2083 413C2603.25 413 3025 782.141 3025 1237.5 3025 1692.86 2603.25 2062 2083 2062L1141 2062 1141 2056.66 1270.33 2045.25C1699.58 1968.37 2022.48 1635.94 2022.48 1237.5 2022.48 839.061 1699.58 506.632 1270.33 429.751L1141 418.339Z" stroke="#C7C7C7" stroke-width="128.333" stroke-miterlimit="8" fill="none" fill-rule="evenodd"/><path d="M0 0 1235.21 0.000360892" stroke="#C7C7C7" stroke-width="128.333" stroke-miterlimit="8" fill="none" fill-rule="evenodd" transform="matrix(-1 0 0 1 1950.21 908)"/><path d="M0 0 1235.21 0.000360892" stroke="#C7C7C7" stroke-width="128.333" stroke-miterlimit="8" fill="none" fill-rule="evenodd" transform="matrix(-1 0 0 1 1950.21 1568)"/></g></svg>