<svg xmlns="http://www.w3.org/2000/svg" height="24" viewBox="0 -960 960 960" width="24"><path d="M102.769-102.769v-163.077h62.769v-428.308h-62.769v-163.077h163.077v62.769h428.308v-62.769h163.077v163.077h-62.769v428.308h62.769v163.077H694.154v-62.769H265.846v62.769H102.769Zm163.077-99.693h428.308v-63.384h63.384v-428.308h-63.384v-63.384H265.846v63.384h-63.384v428.308h63.384v63.384Zm63.231-118.769 139.384-356.923h23.078l140.923 356.923h-37.077l-41.348-104.307H406.425l-41.348 104.307h-36Zm88.462-135.077h124.922l-61.23-159.538h-4l-59.692 159.538ZM139.692-731.077h89.231v-89.231h-89.231v89.231Zm591.385 0h89.231v-89.231h-89.231v89.231Zm0 591.385h89.231v-89.231h-89.231v89.231Zm-591.385 0h89.231v-89.231h-89.231v89.231Zm89.231-591.385Zm502.154 0Zm0 502.154Zm-502.154 0Z" fill="#C7C7C7"/></svg>