<svg width="137" height="137" xmlns="http://www.w3.org/2000/svg" xmlns:xlink="http://www.w3.org/1999/xlink" xml:space="preserve" overflow="hidden"><g transform="translate(-81 -168)"><path d="M39.9583-34.25C30.4444-34.25 22.3577-37.5798 15.6979-44.2396 9.03819-50.8994 5.70833-58.9861 5.70833-68.5 5.70833-78.0139 9.03819-86.1006 15.6979-92.7604 22.3577-99.4202 30.4444-102.75 39.9583-102.75L97.0417-102.75C106.556-102.75 114.642-99.4202 121.302-92.7604 127.962-86.1006 131.292-78.0139 131.292-68.5 131.292-58.9861 127.962-50.8994 121.302-44.2396 114.642-37.5798 106.556-34.25 97.0417-34.25L39.9583-34.25ZM39.9583-42.8125 97.0417-42.8125C104.177-42.8125 110.242-45.3099 115.237-50.3047 120.232-55.2995 122.729-61.3646 122.729-68.5 122.729-75.6354 120.232-81.7005 115.237-86.6953 110.242-91.6901 104.177-94.1875 97.0417-94.1875L39.9583-94.1875C32.8229-94.1875 26.7578-91.6901 21.763-86.6953 16.7682-81.7005 14.2708-75.6354 14.2708-68.5 14.2708-61.3646 16.7682-55.2995 21.763-50.3047 26.7578-45.3099 32.8229-42.8125 39.9583-42.8125ZM97.1759-54.0865C101.177-54.0865 104.581-55.487 107.388-58.2879 110.195-61.0889 111.598-64.4902 111.598-68.4916 111.598-72.493 110.197-75.897 107.396-78.7036 104.596-81.5103 101.194-82.9135 97.1928-82.9135 93.1914-82.9135 89.7874-81.513 86.9807-78.7121 84.1741-75.9111 82.7708-72.5098 82.7708-68.5084 82.7708-64.507 84.1714-61.103 86.9723-58.2964 89.7732-55.4897 93.1746-54.0865 97.1759-54.0865Z" fill="#773E28" transform="matrix(-6.12323e-17 -1 -1 6.12323e-17 81 305)"/></g></svg>