<svg width="3034" height="1979" xmlns="http://www.w3.org/2000/svg" xmlns:xlink="http://www.w3.org/1999/xlink" xml:space="preserve" overflow="hidden"><g transform="translate(-651 -248)"><path d="M3685 1238 3355 1238" stroke="#C7C7C7" stroke-width="128.333" stroke-miterlimit="8" fill="none" fill-rule="evenodd"/><path d="M1375 413 2083 413C2474.02 413 2791 782.141 2791 1237.5 2791 1692.86 2474.02 2062 2083 2062L1375 2062 1375 2056.66 1472.2 2045.25C1794.83 1968.37 2037.52 1635.94 2037.52 1237.5 2037.52 839.061 1794.83 506.632 1472.2 429.751L1375 418.339Z" stroke="#C7C7C7" stroke-width="128.333" stroke-miterlimit="8" fill="none" fill-rule="evenodd"/><path d="M0 0 1246.67 0.000360892" stroke="#C7C7C7" stroke-width="128.333" stroke-miterlimit="8" fill="none" fill-rule="evenodd" transform="matrix(-1 0 0 1 1961.67 908)"/><path d="M0 0 1246.67 0.000360892" stroke="#C7C7C7" stroke-width="128.333" stroke-miterlimit="8" fill="none" fill-rule="evenodd" transform="matrix(-1 0 0 1 1961.67 1568)"/><path d="M1142.82 644C1499.2 644 1788.29 909.229 1789 1236.83 1789.7 1564.73 1501.23 1831.13 1144.52 1832" stroke="#C7C7C7" stroke-width="128.333" stroke-miterlimit="8" fill="none" fill-rule="evenodd"/><path d="M2794 1237.5C2794 1082.58 2919.58 957 3074.5 957 3229.42 957 3355 1082.58 3355 1237.5 3355 1392.42 3229.42 1518 3074.5 1518 2919.58 1518 2794 1392.42 2794 1237.5Z" stroke="#C7C7C7" stroke-width="128.333" stroke-miterlimit="8" fill="none" fill-rule="evenodd"/></g></svg>