<svg width="3034" height="1979" xmlns="http://www.w3.org/2000/svg" xmlns:xlink="http://www.w3.org/1999/xlink" xml:space="preserve" overflow="hidden"><g transform="translate(-651 -248)"><path d="M0 0 660 0.000721785" stroke="#C7C7C7" stroke-width="128.333" stroke-miterlimit="8" fill="none" fill-rule="evenodd" transform="matrix(-1 0 0 1 3685 1238)"/><path d="M1375 413 2200 413C2655.63 413 3025 782.141 3025 1237.5 3025 1692.86 2655.63 2062 2200 2062L1375 2062 1375 2056.66 1488.27 2045.25C1864.21 1968.37 2147 1635.94 2147 1237.5 2147 839.061 1864.21 506.632 1488.27 429.751L1375 418.339Z" stroke="#C7C7C7" stroke-width="128.333" stroke-miterlimit="8" fill="none" fill-rule="evenodd"/><path d="M0 0 1342.92 0.000360892" stroke="#C7C7C7" stroke-width="128.333" stroke-miterlimit="8" fill="none" fill-rule="evenodd" transform="matrix(-1 0 0 1 2057.92 908)"/><path d="M0 0 1379.58 0.000360892" stroke="#C7C7C7" stroke-width="128.333" stroke-miterlimit="8" fill="none" fill-rule="evenodd" transform="matrix(-1 0 0 1 2094.58 1568)"/><path d="M1141.7 644C1546.68 644 1875.2 909.229 1876 1236.83 1876.8 1564.73 1548.99 1831.13 1143.64 1832" stroke="#C7C7C7" stroke-width="128.333" stroke-miterlimit="8" fill="none" fill-rule="evenodd"/></g></svg>